<?xml version="1.0" standalone="no"?>
<!DOCTYPE svg PUBLIC "-//W3C//DTD SVG 20010904//EN"
 "http://www.w3.org/TR/2001/REC-SVG-20010904/DTD/svg10.dtd">
<svg version="1.0" xmlns="http://www.w3.org/2000/svg"
 width="230.000000pt" height="178.000000pt" viewBox="0 0 230.000000 178.000000"
 preserveAspectRatio="xMidYMid meet">

<g transform="translate(0.000000,178.000000) scale(0.100000,-0.100000)"
fill="#000000" stroke="none">
<path d="M965 1663 c-227 -48 -436 -209 -539 -415 -57 -115 -76 -185 -83 -313
-9 -161 28 -306 113 -448 54 -88 174 -205 269 -261 76 -44 239 -105 251 -93 3
3 -2 29 -11 58 -22 64 -17 178 10 228 27 53 29 147 4 190 -17 29 -20 48 -18
115 2 62 -1 89 -14 114 -10 17 -22 32 -28 32 -5 0 -39 29 -75 64 -63 64 -64
65 -64 121 0 30 7 72 15 92 11 25 12 40 5 47 -19 19 -10 46 22 66 17 10 36 16
41 13 5 -3 31 7 59 22 43 24 58 27 107 22 32 -2 76 -14 99 -26 46 -24 124 -28
212 -11 29 6 55 8 57 6 11 -11 -13 -82 -38 -110 -19 -23 -25 -36 -18 -47 5 -7
9 -28 9 -45 0 -25 -8 -36 -46 -63 -44 -30 -46 -34 -41 -68 7 -39 -13 -82 -59
-133 l-23 -25 19 -54 c27 -76 46 -101 75 -101 32 0 32 13 0 38 l-25 20 57 48
c32 27 84 72 115 101 31 29 60 53 65 53 5 0 18 -7 31 -15 20 -14 21 -14 16 0
-4 10 0 15 14 15 17 0 22 -9 28 -45 3 -26 13 -53 22 -62 43 -42 2 -113 -65
-113 -33 -1 -42 -6 -71 -46 -18 -24 -62 -68 -99 -96 l-65 -52 6 -50 c19 -165
19 -190 -3 -250 -11 -33 -20 -61 -18 -62 1 -1 32 6 68 16 221 58 412 213 509
414 59 124 80 213 80 349 0 361 -250 670 -610 757 -102 24 -261 26 -365 3z"/>
</g>
</svg>
